<svg width="72" height="72" viewBox="0 0 72 72" fill="none" xmlns="http://www.w3.org/2000/svg">
  <defs>
    <linearGradient id="badge" x1="10" y1="8" x2="62" y2="64" gradientUnits="userSpaceOnUse">
      <stop stop-color="#facc15" />
      <stop offset="1" stop-color="#f97316" />
    </linearGradient>
    <linearGradient id="mark" x1="24" y1="22" x2="52" y2="56" gradientUnits="userSpaceOnUse">
      <stop stop-color="#1d4ed8" />
      <stop offset="1" stop-color="#22d3ee" />
    </linearGradient>
  </defs>
  <circle cx="36" cy="36" r="32" fill="url(#badge)" />
  <circle cx="36" cy="36" r="25" fill="#fff5eb" />
  <path
    d="M21 44.5c4.6-7.5 9.7-12.5 15.6-14.9 5.9-2.5 12.7-2.1 20.4 1.1L51 24.5c-3.1-3.1-7-4.7-11.5-4.7-4.5 0-8.4 1.6-11.6 4.7L21 31.5v13z"
    fill="#fde68a"
  />
  <path
    d="M23 47.5c5.4-9.2 12-14.7 19.7-16.5s15.9.5 24.3 6.5c-8.4 8.5-17.3 12.7-26.7 12.7-7.1 0-12.6-1.4-17.3-2.7z"
    fill="#fed7aa"
    opacity="0.75"
  />
  <path
    d="M24 45c7.8-7.5 14.9-11.5 21.4-11.9 6.5-.4 12.2 2.4 17.2 8.4-4.8 6.3-10.7 9.5-17.8 9.5-8.5 0-15.4-2-20.8-6z"
    fill="url(#mark)"
  />
  <circle cx="23" cy="46" r="4" fill="#f97316" opacity="0.75" />
  <circle cx="50" cy="27" r="5" fill="#fcd34d" />
</svg>
