<svg xmlns="http://www.w3.org/2000/svg" viewBox="0 0 520 200">
  <defs>
    <linearGradient id="shadowGradient" x1="0%" y1="0%" x2="100%" y2="0%">
      <stop offset="0%" stop-color="#0D5C63" />
      <stop offset="100%" stop-color="#D07F1F" />
    </linearGradient>
    <filter id="softShadow" x="-10%" y="-10%" width="140%" height="140%">
      <feDropShadow dx="0" dy="10" stdDeviation="16" flood-color="#000" flood-opacity="0.1" />
    </filter>
  </defs>
  <g filter="url(#softShadow)">
    <g transform="translate(20,20)">
      <circle cx="80" cy="80" r="80" fill="#fff" />
      <path d="M80.000,0.000 A80,80 0 0 1 147.844,37.606" stroke="#E49A25" stroke-width="24" stroke-linecap="round" fill="none" />
      <path d="M156.085,55.279 A80,80 0 0 1 141.284,131.423" stroke="#F2B441" stroke-width="24" stroke-linecap="round" fill="none" />
      <path d="M127.023,144.721 A80,80 0 0 1 50.031,154.175" stroke="#0D5C63" stroke-width="24" stroke-linecap="round" fill="none" />
      <path d="M32.977,144.721 A80,80 0 0 1 0.195,74.419" stroke="#2A9D8F" stroke-width="24" stroke-linecap="round" fill="none" />
      <path d="M3.915,55.279 A80,80 0 0 1 60.646,2.376" stroke="#7B294E" stroke-width="24" stroke-linecap="round" fill="none" />
      <g fill="#D07F1F">
        <rect x="53" y="72" width="54" height="42" rx="8" />
        <rect x="47" y="82" width="66" height="34" rx="8" fill="#EAA12A" />
        <rect x="67" y="58" width="26" height="16" rx="8" />
        <rect x="57" y="90" width="8" height="10" rx="3" fill="#fff" opacity="0.75" />
        <rect x="95" y="90" width="8" height="10" rx="3" fill="#fff" opacity="0.75" />
      </g>
    </g>
    <text x="220" y="110" font-family="'Inter','Segoe UI',sans-serif" font-weight="600" font-size="72" fill="#0D5C63">
      Start341<tspan fill="#D07F1F">.com</tspan>
    </text>
    <text x="220" y="140" font-family="'Inter','Segoe UI',sans-serif" font-size="20" fill="#5F6C7B">
      Premium digital real estate
    </text>
  </g>
</svg>
